<?xml version="1.0" standalone="no"?>
<!DOCTYPE svg PUBLIC "-//W3C//DTD SVG 20010904//EN"
 "http://www.w3.org/TR/2001/REC-SVG-20010904/DTD/svg10.dtd">
<svg version="1.0" xmlns="http://www.w3.org/2000/svg"
 width="566.000000pt" height="89.000000pt" viewBox="0 0 566.000000 89.000000"
 preserveAspectRatio="xMidYMid meet">

<g transform="translate(0.000000,89.000000) scale(0.100000,-0.100000)"
fill="#000000" stroke="none">
<path d="M1900 535 l0 -355 50 0 50 0 0 355 0 355 -50 0 -50 0 0 -355z"/>
<path d="M2323 680 c-24 -10 -54 -30 -68 -44 l-25 -25 0 39 0 40 -50 0 -50 0
0 -345 0 -345 55 0 55 0 0 122 0 122 28 -26 c36 -35 76 -49 137 -50 83 -1 132
18 186 72 137 137 87 382 -92 445 -57 20 -126 18 -176 -5z m157 -93 c80 -42
112 -152 68 -237 -32 -63 -77 -90 -148 -90 -71 0 -116 27 -148 90 -59 115 23
260 148 260 20 0 56 -10 80 -23z"/>
<path d="M2930 691 c-51 -17 -89 -42 -123 -82 -117 -136 -73 -351 85 -419 77
-33 180 -31 253 5 52 25 102 76 91 92 -2 5 -20 16 -39 27 l-35 18 -29 -31
c-47 -52 -161 -59 -221 -14 -31 23 -58 60 -67 91 l-6 22 210 0 211 0 0 53 c-1
92 -53 177 -135 219 -43 23 -152 33 -195 19z m146 -91 c29 -15 48 -34 65 -65
13 -24 21 -47 18 -50 -4 -3 -77 -4 -163 -3 l-157 3 24 44 c16 31 37 52 67 68
53 28 91 29 146 3z"/>
<path d="M3424 676 c-37 -17 -55 -33 -67 -59 -46 -96 -4 -159 138 -208 50 -18
100 -41 113 -52 22 -20 28 -52 14 -73 -36 -55 -187 -38 -206 24 -6 19 -8 19
-51 3 -25 -9 -45 -21 -45 -28 0 -23 55 -76 99 -96 54 -24 170 -26 221 -5 75
32 110 96 96 172 -10 52 -60 89 -170 126 -60 20 -100 39 -106 50 -27 50 6 90
72 90 27 0 47 -8 72 -30 l34 -31 41 17 c23 9 41 21 41 26 0 6 -15 25 -33 43
-59 59 -174 73 -263 31z"/>
<path d="M3995 683 c-101 -37 -158 -103 -174 -203 -19 -120 33 -229 134 -283
58 -31 193 -31 251 0 53 28 97 79 119 137 21 56 17 174 -8 222 -58 112 -204
169 -322 127z m183 -65 c62 -29 95 -83 100 -163 5 -73 -9 -123 -46 -167 -69
-82 -210 -90 -290 -15 -67 62 -85 178 -41 263 29 57 62 83 126 99 56 15 91 11
151 -17z"/>
<path d="M4639 686 c-42 -15 -99 -53 -99 -67 0 -5 -4 -9 -10 -9 -5 0 -10 18
-10 40 0 36 -2 40 -25 40 l-25 0 0 -255 0 -255 30 0 30 0 0 178 c0 158 2 180
20 209 24 40 53 59 108 71 53 12 118 -1 151 -31 44 -41 51 -74 51 -257 l0
-170 30 0 30 0 0 183 c0 197 -9 236 -61 284 -52 48 -149 65 -220 39z"/>
<path d="M5212 681 c-60 -21 -114 -67 -145 -126 -31 -57 -31 -193 0 -250 45
-85 128 -134 227 -135 83 0 134 18 183 66 47 45 53 63 24 81 -17 11 -22 8 -40
-23 -37 -62 -157 -94 -238 -63 -58 22 -122 108 -123 167 l0 22 221 0 222 0 -7
53 c-14 109 -74 184 -168 212 -66 19 -91 19 -156 -4z m165 -50 c48 -22 91 -80
100 -135 l6 -36 -192 0 c-212 0 -205 -3 -176 68 44 104 159 149 262 103z"/>
<path d="M1372 664 c-110 -55 -160 -184 -123 -321 44 -164 280 -236 391 -120
33 35 40 34 40 -8 0 -35 0 -35 45 -35 l45 0 0 255 0 255 -45 0 -45 0 0 -40 c0
-44 -9 -50 -27 -21 -21 34 -94 61 -164 61 -50 0 -77 -6 -117 -26z m231 -87
c46 -35 71 -100 65 -168 -10 -103 -100 -168 -204 -147 -147 30 -169 262 -32
332 48 25 127 17 171 -17z"/>
<path d="M5629 229 c18 -7 22 -15 19 -34 -3 -13 -1 -22 3 -19 24 15 0 65 -30
63 -10 0 -6 -4 8 -10z"/>
<path d="M5580 203 c0 -6 8 -17 18 -24 16 -13 16 -13 2 6 -8 11 -16 22 -17 24
-2 2 -3 0 -3 -6z"/>
</g>
</svg>
